<svg width="16" height="16" viewBox="0 0 16 16" fill="none" xmlns="http://www.w3.org/2000/svg">
<path d="M16 1.5625V14.4375C16 15.2991 15.2991 16 14.4375 16H12.9166C12.5714 16 12.2916 15.7202 12.2916 15.375C12.2916 15.0298 12.5714 14.75 12.9166 14.75H14.4375C14.6099 14.75 14.75 14.6099 14.75 14.4375V8.65662H9.22913C8.88391 8.65662 8.60413 8.37683 8.60413 8.03162C8.60413 7.6864 8.88391 7.40662 9.22913 7.40662H14.75V1.5625C14.75 1.39014 14.6099 1.25 14.4375 1.25H7.37732V3.08337C7.37732 3.42859 7.09741 3.70837 6.75232 3.70837C6.4071 3.70837 6.12732 3.42859 6.12732 3.08337V1.25H1.5625C1.39014 1.25 1.25 1.39014 1.25 1.5625V7.375H6.12732V5.54163C6.12732 5.19641 6.4071 4.91663 6.75232 4.91663C7.09741 4.91663 7.37732 5.19641 7.37732 5.54163V10.4583C7.37732 10.8035 7.09741 11.0833 6.75232 11.0833C6.4071 11.0833 6.12732 10.8035 6.12732 10.4583V8.625H1.25V14.4375C1.25 14.6099 1.39014 14.75 1.5625 14.75H6.12732V12.9166C6.12732 12.5714 6.4071 12.2916 6.75232 12.2916C7.09741 12.2916 7.37732 12.5714 7.37732 12.9166V14.75H10.4583C10.8035 14.75 11.0833 15.0298 11.0833 15.375C11.0833 15.7202 10.8035 16 10.4583 16H1.5625C0.700928 16 0 15.2991 0 14.4375V1.5625C0 0.700928 0.700928 0 1.5625 0H14.4375C15.2991 0 16 0.700928 16 1.5625Z" fill="#9AA5B5"/>
</svg>
