<svg width="18" height="16" viewBox="0 0 18 16" fill="none" xmlns="http://www.w3.org/2000/svg">
<path fill-rule="evenodd" clip-rule="evenodd" d="M16.6172 0.85492V7.57713C17.4069 7.76375 18 8.52628 18 9.43646V12.7863C18 13.2069 17.6852 13.5477 17.2969 13.5477H15.9258V14.2836C15.9258 14.7041 15.611 15.0449 15.2227 15.0449C14.8343 15.0449 14.5195 14.7041 14.5195 14.2836V13.5477H3.48047V14.2836C3.48047 14.7041 3.16571 15.0449 2.77734 15.0449C2.38898 15.0449 2.07422 14.7041 2.07422 14.2836V13.5477H0.703125C0.314758 13.5477 0 13.2069 0 12.7863V9.43646C0 8.52628 0.593124 7.76375 1.38277 7.57713V0.807931C1.38277 0.387412 1.69753 0.0465948 2.08589 0.0465948C2.47426 0.0465948 2.78902 0.387412 2.78902 0.807931V2.2512C6.46738 -0.69095 11.5337 -0.690058 15.211 2.2512V0.85492C15.211 0.4344 15.5257 0.0935835 15.9141 0.0935835C16.3025 0.0935835 16.6172 0.4344 16.6172 0.85492ZM15.211 7.53297V4.23186C11.6973 0.654623 6.25259 0.705627 2.78902 4.23186V7.53297H5.5312V5.29982C5.5312 4.8793 5.84596 4.53848 6.23433 4.53848H11.7657C12.154 4.53848 12.4688 4.8793 12.4688 5.29982V7.53297H15.211ZM6.93745 7.53312V6.06115H11.0625V7.53312H6.93745ZM1.40625 12.025H16.5938V9.43646C16.5938 9.2265 16.4361 9.05579 16.2422 9.05579H1.75781C1.5639 9.05579 1.40625 9.2265 1.40625 9.43646V12.025Z" fill="#9AA5B5"/>
</svg>
