<svg width="20" height="15" viewBox="0 0 20 15" fill="none" xmlns="http://www.w3.org/2000/svg">
<path fill-rule="evenodd" clip-rule="evenodd" d="M19.2187 14.5371C19.6501 14.5371 20 14.1837 20 13.7476C20 13.3116 19.6501 12.9581 19.2187 12.9581H15.3906V11.4317H17.6823C18.1137 11.4317 18.4636 11.0783 18.4636 10.6423V8.43785C18.4636 7.20967 17.8166 6.06815 16.7893 5.43903L15.3506 1.0768C15.2441 0.754527 14.9456 0.537109 14.6093 0.537109H5.39055C5.05425 0.537109 4.75578 0.754527 4.64942 1.0768L3.2105 5.43903C2.18341 6.06815 1.53643 7.20967 1.53643 8.43785V10.6423C1.53643 11.0783 1.88617 11.4317 2.31769 11.4317H4.60929V12.9581H0.781262C0.349737 12.9581 0 13.3116 0 13.7476C0 14.1837 0.349737 14.5371 0.781262 14.5371H19.2187ZM15.0619 5.19494H4.93812L5.95361 2.11593H14.0462L15.0619 5.19494ZM3.09895 9.85292H16.901V8.43785C16.901 7.75214 16.5338 7.11577 15.9535 6.77391H4.04654C3.46624 7.11577 3.09895 7.75214 3.09895 8.43785V9.85292ZM13.828 12.9581H6.17182V11.4317H13.828V12.9581Z" fill="#9AA5B5"/>
</svg>
