<svg width="16" height="18" viewBox="0 0 16 18" fill="none" xmlns="http://www.w3.org/2000/svg">
<path fill-rule="evenodd" clip-rule="evenodd" d="M8.03687 0H12.2889C14.3216 0 15.9755 1.57709 15.9754 3.51562V17.2969C15.9754 17.6852 15.6453 18 15.238 18C14.8308 18 14.5007 17.6852 14.5007 17.2969V3.51562C14.5007 2.35245 13.5085 1.40625 12.2887 1.40625H8.03687C6.81711 1.40625 5.82488 2.35245 5.82488 3.51562V5.58243C8.28197 5.9241 10.1751 7.94641 10.1751 10.3829C10.1751 10.7711 9.84505 11.086 9.43779 11.086H0.737327C0.330069 11.086 0 10.7711 0 10.3829C0 7.94641 1.89314 5.9241 4.35023 5.58243V3.51562C4.35023 1.57709 6.00403 0 8.03687 0ZM5.08756 6.93745C3.34793 6.93745 1.89156 8.11588 1.55026 9.67964H8.62486C8.28355 8.11588 6.82719 6.93745 5.08756 6.93745ZM5.82488 12.8028V13.8575C5.82488 14.2458 5.49482 14.5606 5.08756 14.5606C4.6803 14.5606 4.35023 14.2458 4.35023 13.8575V12.8028C4.35023 12.4144 4.6803 12.0997 5.08756 12.0997C5.49482 12.0997 5.82488 12.4144 5.82488 12.8028ZM5.8161 17.2969V16.2422C5.8161 15.8538 5.48603 15.5391 5.07877 15.5391C4.67166 15.5391 4.34145 15.8538 4.34145 16.2422V17.2969C4.34145 17.6852 4.67166 18 5.07877 18C5.48603 18 5.8161 17.6852 5.8161 17.2969ZM2.92915 12.8028V13.8575C2.92915 14.2458 2.59893 14.5606 2.19182 14.5606C1.78456 14.5606 1.45449 14.2458 1.45449 13.8575V12.8028C1.45449 12.4144 1.78456 12.0997 2.19182 12.0997C2.59893 12.0997 2.92915 12.4144 2.92915 12.8028ZM2.92036 17.2969V16.2422C2.92036 15.8538 2.59029 15.5391 2.18304 15.5391C1.77578 15.5391 1.44571 15.8538 1.44571 16.2422V17.2969C1.44571 17.6852 1.77578 18 2.18304 18C2.59029 18 2.92036 17.6852 2.92036 17.2969ZM8.71198 12.8028V13.8575C8.71198 14.2458 8.38177 14.5606 7.97465 14.5606C7.5674 14.5606 7.23733 14.2458 7.23733 13.8575V12.8028C7.23733 12.4144 7.5674 12.0997 7.97465 12.0997C8.38177 12.0997 8.71198 12.4144 8.71198 12.8028ZM8.7032 17.2969V16.2422C8.7032 15.8538 8.37298 15.5391 7.96587 15.5391C7.55861 15.5391 7.22854 15.8538 7.22854 16.2422V17.2969C7.22854 17.6852 7.55861 18 7.96587 18C8.37298 18 8.7032 17.6852 8.7032 17.2969Z" fill="#9AA5B5"/>
</svg>
