<svg width="133" height="31" viewBox="0 0 133 31" fill="none" xmlns="http://www.w3.org/2000/svg">
<path fill-rule="evenodd" clip-rule="evenodd" d="M49.7122 18.379C49.7122 20.4528 49.3438 21.5477 48.4342 22.3826C47.4978 23.2187 45.9636 23.7374 43.7471 23.7374C41.5594 23.7374 40.2537 23.3345 39.344 22.5277C38.1803 21.4892 37.6699 19.7327 37.6699 17.0535V15.872C37.6699 13.221 38.1803 11.694 39.2896 10.571C40.2814 9.56171 41.647 9.10038 43.5773 9.10038C44.6557 9.10038 45.6219 9.38952 46.2764 9.82162H46.3319V4.6939C46.3319 4.11669 46.5017 3.97266 47.1273 3.97266H48.9178C49.5424 3.97266 49.7122 4.11669 49.7122 4.6939V18.379ZM46.3319 14.4306C46.3319 13.2794 46.1045 12.7889 45.765 12.4727C45.3667 12.0969 44.7987 11.8673 43.8613 11.8673C42.8673 11.8673 42.2428 12.1846 41.8167 12.7022C41.2199 13.4235 41.1057 14.3451 41.1057 15.9586V16.8521C41.1057 18.6952 41.2765 19.5887 41.7879 20.2233C42.2128 20.7409 42.7808 20.9716 43.7471 20.9716C44.8553 20.9716 45.3956 20.7701 45.7927 20.338C46.1899 19.9049 46.3319 19.1847 46.3319 18.2057L46.3319 14.4306Z" fill="white"/>
<path fill-rule="evenodd" clip-rule="evenodd" d="M61.2447 22.267C60.7044 23.2179 59.8236 23.7366 58.1196 23.7366H57.069C55.5914 23.7366 54.7116 23.4767 53.944 22.815C53.1208 22.0938 52.7236 20.9708 52.7236 19.5879V18.9251C52.7236 17.37 53.092 16.2752 53.9162 15.5821C54.797 14.8338 56.1316 14.5165 58.0641 14.5165H59.0869C59.5983 14.5165 60.193 14.5457 60.6778 14.5749V13.7974C60.6778 13.0469 60.5336 12.6159 60.193 12.3268C59.7969 12.0105 59.2567 11.9239 58.2349 11.9239C57.21 11.9239 55.8765 12.1253 54.7415 12.4719C54.2856 12.6159 54.1159 12.4134 54.0305 12.0105L53.7742 10.6558C53.6621 10.1674 53.7187 9.93563 54.2002 9.79269C55.2519 9.44615 56.9847 9.09961 58.4901 9.09961C60.5059 9.09961 61.6141 9.35951 62.5803 10.0223C63.6021 10.7424 64.0559 11.781 64.0559 13.8255V22.9298C64.0559 23.3045 63.8573 23.4767 63.4601 23.4767H62.1543C61.7262 23.4767 61.5564 23.3337 61.4721 22.9591L61.3023 22.2671L61.2447 22.267ZM60.6778 17.3115C60.193 17.2834 59.5983 17.2541 59.0293 17.2541H58.0363C57.3819 17.2541 56.8416 17.3408 56.5576 17.5996C56.2448 17.8595 56.1316 18.349 56.1316 19.0117V19.3572C56.1316 19.9907 56.2736 20.3957 56.5576 20.6545C56.785 20.856 57.1833 20.9989 57.8089 20.9989H58.8307C60.1375 20.9989 60.6778 20.3957 60.6778 19.0691V17.3115Z" fill="white"/>
<path d="M71.8114 9.35858H74.6236C75.1052 9.35858 75.2194 9.53185 75.2194 10.1069V11.5201C75.2194 12.0096 75.1052 12.2403 74.6236 12.2403H71.8114V18.5202C71.8114 19.5577 71.868 19.9032 72.1531 20.2215C72.4072 20.5096 72.72 20.5952 73.4866 20.5952H74.8777C75.4756 20.5952 75.56 20.7684 75.56 21.3445V22.7556C75.56 23.3036 75.5045 23.4758 74.8777 23.4758H72.8321C71.1858 23.4758 70.2206 23.2169 69.5106 22.5542C68.7728 21.8633 68.4312 20.7392 68.4312 19.0964V12.2403H66.7272C66.3012 12.2403 66.1592 12.1244 66.1592 11.6923V10.4253C66.1592 9.96394 66.2724 9.87838 66.613 9.81991L68.4312 9.50369V6.47796C68.4312 5.90184 68.6009 5.75781 69.2266 5.75781H71.016C71.6406 5.75781 71.8114 5.90184 71.8114 6.47796L71.8114 9.35858Z" fill="white"/>
<path fill-rule="evenodd" clip-rule="evenodd" d="M86.0153 22.267C85.474 23.2179 84.5953 23.7366 82.8902 23.7366H81.8396C80.362 23.7366 79.4822 23.4767 78.7146 22.815C77.8914 22.0938 77.4932 20.9708 77.4932 19.5879V18.9251C77.4932 17.37 77.8626 16.2752 78.6868 15.5821C79.5666 14.8338 80.9022 14.5165 82.8326 14.5165H83.8565C84.3657 14.5165 84.9636 14.5457 85.4462 14.5749V13.7974C85.4462 13.0469 85.3053 12.6159 84.9636 12.3268C84.5654 12.0105 84.0262 11.9239 83.0034 11.9239C81.9806 11.9239 80.6449 12.1253 79.5089 12.4719C79.0552 12.6159 78.8854 12.4134 78.7989 12.0105L78.5438 10.6558C78.4295 10.1674 78.4872 9.93563 78.9708 9.79269C80.0203 9.44615 81.7532 9.09961 83.2596 9.09961C85.2754 9.09961 86.3836 9.35951 87.3488 10.0223C88.3716 10.7424 88.8265 11.781 88.8265 13.8255V22.9298C88.8265 23.3045 88.6268 23.4767 88.2307 23.4767H86.9228C86.4968 23.4767 86.3271 23.3337 86.2427 22.9591L86.0708 22.2671L86.0153 22.267ZM85.4462 17.3115C84.9636 17.2834 84.3657 17.2541 83.7999 17.2541H82.8059C82.1514 17.2541 81.6122 17.3408 81.3272 17.5996C81.0165 17.8595 80.9022 18.349 80.9022 19.0117V19.3572C80.9022 19.9907 81.0431 20.3957 81.3272 20.6545C81.5546 20.856 81.9528 20.9989 82.5763 20.9989H83.5992C84.906 20.9989 85.4462 20.3957 85.4462 19.0691V17.3115Z" fill="white"/>
<path fill-rule="evenodd" clip-rule="evenodd" d="M95.7582 10.1681H95.8138C96.6081 9.47615 97.6886 9.10037 99.2218 9.10037C100.983 9.10037 102.261 9.53354 103.141 10.571C104.079 11.6366 104.449 13.4235 104.449 15.872V17.0816C104.449 19.5886 103.965 21.2596 102.943 22.2971C101.893 23.3627 100.443 23.7374 98.2566 23.7374C96.4384 23.7374 95.1604 23.5641 94.1375 22.9013C93.0304 22.153 92.377 21.1156 92.377 18.7234V4.6939C92.377 4.11669 92.5478 3.97266 93.1724 3.97266H94.9607C95.5853 3.97266 95.7583 4.11669 95.7583 4.6939L95.7582 10.1681ZM101.011 15.9859C101.011 14.3149 100.955 13.3652 100.472 12.6732C100.073 12.096 99.3633 11.8945 98.3693 11.8945C97.4319 11.8945 96.7796 12.0689 96.3813 12.4133C96.0119 12.7306 95.7578 13.1908 95.7578 14.3441V18.233C95.7578 19.3863 95.8699 19.8476 96.1539 20.2505C96.5522 20.74 97.149 20.9706 98.2839 20.9706C99.3356 20.9706 100.018 20.7118 100.415 20.1931C100.841 19.6451 101.011 18.8957 101.011 16.8782V15.9859Z" fill="white"/>
<path fill-rule="evenodd" clip-rule="evenodd" d="M117.487 10.7998C118.538 12.0105 118.935 13.8256 118.935 15.986V16.8513C118.935 19.0691 118.538 20.8267 117.487 22.0375C116.549 23.102 115.072 23.7366 112.97 23.7366C110.868 23.7366 109.391 23.102 108.454 22.0375C107.402 20.8267 107.006 19.0691 107.006 16.8513V15.986C107.006 13.8256 107.402 12.0105 108.454 10.7998C109.391 9.70497 110.839 9.09961 112.97 9.09961C115.1 9.09961 116.549 9.70497 117.487 10.7998ZM114.873 20.2211C115.356 19.5865 115.498 18.4624 115.498 16.7048V16.1005C115.498 14.3429 115.356 13.2481 114.873 12.6146C114.475 12.0948 113.992 11.8359 112.97 11.8359C111.947 11.8359 111.464 12.0948 111.067 12.6146C110.583 13.2481 110.442 14.3429 110.442 16.1005V16.7048C110.442 18.4624 110.583 19.5865 111.067 20.2211C111.464 20.7106 111.947 20.9976 112.97 20.9976C113.992 20.9976 114.475 20.7106 114.873 20.2211Z" fill="white"/>
<path d="M132.91 22.843C133.08 23.1603 133.051 23.4766 132.425 23.4766H130.154C129.559 23.4766 129.472 23.3899 129.246 22.9297L127.2 18.2915C127.003 17.8594 126.916 17.6861 126.774 17.6861H126.435C126.291 17.6861 126.179 17.9168 126.007 18.2915L123.907 22.9297C123.707 23.3899 123.594 23.4766 122.997 23.4766H120.725C120.101 23.4766 120.07 23.1603 120.242 22.843L123.564 16.5046C123.679 16.3032 123.679 16.1591 123.564 15.9577L120.44 9.99397C120.27 9.67775 120.298 9.35938 120.923 9.35938H123.139C123.736 9.35938 123.821 9.44601 124.049 9.90625L126.007 14.199C126.179 14.5456 126.263 14.747 126.435 14.747H126.774C126.945 14.747 127.058 14.5456 127.23 14.199L129.218 9.90625C129.445 9.446 129.53 9.35938 130.126 9.35938H132.342C132.967 9.35938 132.996 9.67775 132.825 9.99397L129.587 15.9577C129.472 16.1592 129.472 16.3032 129.587 16.5046L132.91 22.843Z" fill="white"/>
<path d="M27.9999 21.1949V9.80493C27.9999 8.33656 27.2151 6.9797 25.9411 6.24568L16.0588 0.550537C14.7849 -0.183513 13.2151 -0.183513 11.9411 0.550537L2.05881 6.24568C0.78461 6.9797 0 8.33656 0 9.80493V21.1949C0 22.6633 0.78461 24.0202 2.05881 24.7542L11.9411 30.4493C13.2151 31.1834 14.7849 31.1834 16.0588 30.4493L25.9411 24.7542C27.2151 24.0202 27.9999 22.6633 27.9999 21.1949Z" fill="#008ACE"/>
<path d="M13.9572 6.57401H15.1012C15.3287 6.57401 15.5129 6.75788 15.5129 6.98471V20.9902C15.5129 21.8313 14.83 22.513 13.9876 22.513C13.1449 22.513 12.462 21.8313 12.462 20.9902V8.06621C12.462 7.24214 13.1313 6.57401 13.9572 6.57401Z" fill="white"/>
<path d="M19.2705 10.9236H20.4147C20.6422 10.9236 20.8264 11.1078 20.8264 11.3346V20.9906C20.8264 21.8318 20.1435 22.5134 19.3008 22.5134C18.4584 22.5134 17.7755 21.8318 17.7755 20.9906V12.4161C17.7755 11.5918 18.4449 10.9236 19.2705 10.9236Z" fill="white"/>
<path d="M8.66796 16.414H9.81216C10.0397 16.414 10.224 16.5979 10.224 16.825V21.0156C10.224 21.8567 9.54101 22.5384 8.69833 22.5384C7.85592 22.5384 7.17297 21.8567 7.17297 21.0156V17.9065C7.17297 17.0821 7.84233 16.414 8.66796 16.414Z" fill="white"/>
</svg>
