<?xml version="1.0" encoding="utf-8"?>
<!-- Generator: Adobe Illustrator 23.0.3, SVG Export Plug-In . SVG Version: 6.00 Build 0)  -->
<svg version="1.1" id="Layer_1" xmlns="http://www.w3.org/2000/svg" xmlns:xlink="http://www.w3.org/1999/xlink" x="0px" y="0px"
	 viewBox="0 0 41.8 41.8" style="enable-background:new 0 0 41.8 41.8;" xml:space="preserve">
<style type="text/css">
	.st0{fill:none;}
	.st1{fill:url(#SVGID_1_);}
	.st2{opacity:0.25;fill:#7540AB;enable-background:new    ;}
	.st3{fill:url(#SVGID_2_);}
	.st4{fill:#FFFFFF;}
</style>
<rect y="0.00002" class="st0" width="41.8" height="41.8"/>
<g>
	
		<linearGradient id="SVGID_1_" gradientUnits="userSpaceOnUse" x1="1518.60669" y1="891.06567" x2="1543.20679" y2="891.06567" gradientTransform="matrix(-1 0 0 1 1551.90674 -869.96564)">
		<stop  offset="0" style="stop-color:#1D9AD6"/>
		<stop  offset="0.24074" style="stop-color:#208BCB"/>
		<stop  offset="0.7022" style="stop-color:#2864AD"/>
		<stop  offset="1" style="stop-color:#2E4797"/>
	</linearGradient>
	<path class="st1" d="M8.70001,16.08719v10.02565c0,1.29242,0.6895,2.48666,1.80876,3.13287l8.68247,5.01283
		c1.11927,0.64621,2.49826,0.64621,3.61753,0l8.68247-5.01283C32.6105,28.5995,33.3,27.40526,33.3,26.11284V16.08719
		c0-1.29242-0.6895-2.48666-1.80876-3.13287l-8.68247-5.01283c-1.11927-0.64621-2.49826-0.64621-3.61753,0l-8.68247,5.01283
		C9.3895,13.60052,8.70001,14.79477,8.70001,16.08719z"/>
	<path class="st2" d="M10.50877,12.9543C9.3895,13.60053,8.7,14.79477,8.7,16.08719v10.02564
		c0,0.64623,0.17233,1.26789,0.48465,1.80877l11.81537-6.82159V7.45684c-0.62454,0-1.24916,0.16155-1.80877,0.48465
		L10.50877,12.9543z"/>
	
		<linearGradient id="SVGID_2_" gradientUnits="userSpaceOnUse" x1="9.18464" y1="15.354" x2="32.81533" y2="15.354" gradientTransform="matrix(1 0 0 -1 0 43.27561)">
		<stop  offset="0" style="stop-color:#375CB3"/>
		<stop  offset="1" style="stop-color:#15BEDF"/>
	</linearGradient>
	<path class="st3" d="M10.50877,29.2457l8.68247,5.01286c1.11927,0.64619,2.49827,0.64619,3.61754,0l8.68247-5.01286
		c0.55962-0.3231,1.01182-0.78321,1.32409-1.32409L21,21.10001L9.18464,27.9216C9.49691,28.46249,9.94915,28.9226,10.50877,29.2457z
		"/>
	<g>
		<path class="st4" d="M20.8768,13.97523h1.14553c0.16957,0,0.30703,0.13746,0.30703,0.30702v12.23223
			c0,0.74024-0.60008,1.34033-1.34033,1.34033h-1.03331c-0.16957,0-0.30703-0.13746-0.30703-0.30702V15.20333
			C19.64869,14.52506,20.19853,13.97523,20.8768,13.97523z"/>
		<path class="st4" d="M25.5455,17.34302h1.14553c0.16956,0,0.30702,0.13746,0.30702,0.30703v8.86443
			c0,0.74024-0.60008,1.34033-1.34033,1.34033h-1.0333c-0.16956,0-0.30703-0.13746-0.30703-0.30702v-8.97665
			C24.3174,17.89287,24.86724,17.34302,25.5455,17.34302z"/>
		<path class="st4" d="M16.23003,22.02214h1.14553c0.16956,0,0.30703,0.13746,0.30703,0.30702v4.20725
			c0,0.74024-0.60009,1.34033-1.34033,1.34033h-1.03331c-0.16956,0-0.30702-0.13746-0.30702-0.30702v-4.31948
			C15.00192,22.57198,15.55176,22.02214,16.23003,22.02214z"/>
	</g>
</g>
</svg>
